PathFileType	4	(X/Y/Z)	C:/Users/beibeiliu/ov580/test_trc/User3\sequence.6_training_dense_left.trc
DataRate	CameraRate	NumFrames	NumMarkers	Units	OrigDataRate	OrigDataStartFrame	OrigNumFrames
120	120	11	19	mm	120	1	107
Frame#	Time	ThumbCMC			ThumbMCP			ThumbIP			ThumbTip			IndexMCP			IndexPIP			IndexTip			MiddleMCP			MiddlePIP			MiddleTip			RingMCP			RingPIP			RingTip			PinkyMCP			PinkyPIP			PinkyTip			BackHand1			BackHand2			BackHand3	
		X0	Y0	Z0	X1	Y1	Z1	X2	Y2	Z2	X3	Y3	Z3	X4	Y4	Z4	X5	Y5	Z5	X6	Y6	Z6	X7	Y7	Z7	X8	Y8	Z8	X9	Y9	Z9	X10	Y10	Z10	X11	Y11	Z11	X12	Y12	Z12	X13	Y13	Z13	X14	Y14	Z14	X15	Y15	Z15	X16	Y16	Z16	X17	Y17	Z17	X18	Y18	Z18	
0	0	-166.479	15.4238	-10.0479	-158.721	9.74962	-42.3662	-159.079	7.30405	-74.6192	-185.833	2.62052	-94.2056	-191.029	35.7705	-78.4974	-185.641	5.10134	-89.7772	-184.672	-7.06488	-54.4165	-210.468	28.4453	-80.4098	-204.688	-3.91349	-82.6969	-201.768	0.441545	-43.3144	-224.652	17.1854	-73.0227	-217.994	-10.7256	-69.7962	-210.416	-6.36819	-36.2766	-242.355	8.48156	-62.2502	-230.477	-13.1484	-57.1645	-219.557	-5.66659	-28.7857	-229.301	45.2842	-21.6205	-226.439	33.0489	13.7464	-195.671	43.9173	-6.58505	
1	0.00833333	-159.053	5.43376	-8.097	-147.27	-0.381613	-38.853	-156.311	-5.04244	-66.8774	-184.236	-11.6584	-77.9552	-178.369	18.4167	-80.9522	-176.231	-14.9162	-90.7158	-176.163	-25.0774	-57.1136	-196.02	9.26875	-83.1776	-193.684	-20.4033	-81.85	-193.554	-11.0317	-41.555	-217.135	2.50403	-72.1377	-207.737	-25.4559	-65.4623	-200.672	-12.9771	-30.5222	-230.313	-0.273844	-59.8031	-219.258	-27.153	-49.1626	-213.731	-16.7532	-23.5523	-218.546	34.9583	-22.613	-215.343	31.1598	8.19842	-183.034	34.222	-11.1298	
2	0.0166667	-150.573	-6.12181	-4.03113	-138.917	-20.6779	-31.5804	-148.478	-32.9878	-64.8024	-173.23	-37.1058	-68.218	-163.472	2.51259	-83.245	-165.726	-26.005	-88.967	-161.355	-32.1011	-55.9978	-187.861	-3.99605	-80.1111	-184.005	-36.0357	-76.2114	-181.641	-23.653	-38.9367	-202.234	-9.49893	-70.0372	-197.947	-39.738	-56.9299	-193.941	-23.7194	-28.11	-221.407	-15.4002	-59.9122	-211.918	-39.0783	-45.6958	-205.874	-24.186	-22.2699	-209.986	25.6519	-25.0697	-206.566	22.8908	6.05189	-175.706	24.364	-9.26756	
3	0.025	-142.249	-16.0234	-5.75278	-136.195	-34.9048	-29.2871	-144.082	-50.3014	-56.0608	-167.736	-56.3522	-63.3199	-159.015	-13.6493	-79.0378	-154.018	-45.1311	-77.7725	-159.154	-40.7195	-48.2724	-178.197	-18.0832	-76.3418	-176.341	-51.3718	-68.6795	-177.272	-34.5788	-34.5002	-194.14	-26.3953	-68.4244	-191.592	-53.1314	-52.6335	-185.931	-39.1746	-26.108	-210.668	-26.6141	-55.7387	-200.785	-51.0252	-42.971	-198.617	-35.2069	-16.6413	-202.356	13.3194	-28.1224	-205.362	14.4472	4.86033	-168.813	15.4502	-11.7102	
4	0.0333333	-143.582	-24.7627	0.978982	-132.973	-46.8291	-26.9843	-138.944	-65.1381	-50.6913	-167.303	-70.9571	-60.1929	-151.684	-25.9149	-73.3629	-150.339	-58.1929	-72.3633	-150.294	-49.3347	-38.8182	-171.337	-36.1064	-76.2051	-168.481	-63.9436	-59.9966	-170.042	-46.1664	-29.2903	-194.4	-40.257	-63.0764	-184.992	-65.433	-45.521	-182.887	-44.311	-20.1119	-210.013	-44.1945	-52.4378	-195.865	-61.3982	-38.6285	-194.648	-43.4918	-12.4361	-200.202	3.97758	-26.8478	-197.101	6.32243	4.18574	-166.766	5.1618	-10.641	
5	0.0416667	-141.242	-32.5242	-0.511469	-131.366	-54.7896	-22.6042	-140.913	-73.2524	-48.507	-166.743	-81.143	-55.7121	-149.148	-36.5768	-68.8937	-151.205	-69.6918	-61.9144	-148.623	-56.941	-33.4244	-173.314	-47.6842	-70.1973	-166.463	-74.5087	-56.0835	-170.834	-53.0304	-24.6683	-192.613	-51.4873	-58.8974	-185.164	-74.8521	-39.2349	-182.223	-55.3247	-15.4993	-205.767	-53.5325	-49.1369	-194.053	-71.242	-33.9581	-193.876	-51.0757	-9.86433	-195.716	-5.10212	-21.8052	-198.216	-2.82166	7.94219	-162.255	-2.69514	-7.61048	
6	0.05	-138.824	-37.9108	2.41245	-129.352	-61.6503	-21.2791	-138.966	-79.3301	-41.1543	-164.043	-85.9385	-50.7558	-153.221	-47.1879	-68.1908	-146.19	-74.4231	-61.3437	-150.257	-62.5052	-30.2561	-173.537	-55.4654	-66.8239	-164.792	-80.5804	-53.8335	-168.348	-56.7423	-19.5107	-187.867	-55.6074	-55.5914	-182.852	-81.4359	-38.316	-176.946	-58.4194	-11.1311	-206.611	-62.884	-45.1811	-192.184	-77.4623	-24.6818	-192.477	-55.9319	-5.68983	-195.421	-14.2381	-18.7086	-200.69	-10.1149	12.2331	-166.682	-7.40194	-3.79609	
7	0.0583333	-139.484	-38.2326	8.97149	-129.083	-62.2296	-16.5884	-137.156	-81.3552	-44.9262	-164.149	-89.1733	-52.1497	-152.186	-46.3385	-66.303	-145.938	-75.9765	-55.2215	-151.551	-63.7761	-27.8198	-171.871	-55.7517	-65.0069	-165.626	-81.3118	-51.5099	-165.59	-55.1987	-17.5889	-187.482	-58.0433	-54.4902	-184.758	-82.8323	-35.6343	-180.149	-63.1854	-10.0788	-205.003	-66.4028	-44.7642	-192.514	-79.727	-26.3137	-192.075	-55.1439	-3.86604	-201.729	-16.2556	-16.727	-201.542	-12.4835	12.4407	-164.844	-7.76388	-2.56613	
8	0.0666667	-140.97	-38.2172	8.1227	-131.553	-59.9519	-17.262	-139.612	-76.1808	-40.7393	-166.839	-83.0138	-50.4941	-152.17	-41.1417	-63.3942	-147.997	-73.9016	-54.3369	-148.816	-56.526	-25.1454	-172.225	-48.6736	-63.5102	-168.972	-79.4151	-48.9208	-168.699	-57.4025	-17.7012	-189.589	-56.9793	-54.1998	-185.153	-80.8139	-36.2508	-177.895	-59.3483	-9.47173	-208.318	-59.6529	-43.3772	-194.024	-78.054	-27.3049	-193.494	-56.8615	-2.19947	-199.492	-14.4372	-16.2764	-202.899	-12.0172	17.515	-167.156	-8.97537	0.9618	
9	0.075	-144.886	-36.0073	11.5114	-129.708	-58.3784	-16.4696	-135.747	-74.346	-40.8474	-163.994	-79.7583	-48.2864	-153.13	-37.8616	-62.2962	-152.12	-68.6169	-58.8858	-153.806	-57.3393	-25.3753	-172.639	-45.2986	-64.0395	-167.036	-75.0764	-52.5701	-169.447	-57.1059	-18.1377	-188.472	-52.3448	-54.491	-188.625	-77.8384	-38.226	-181.911	-58.4749	-9.5804	-206.996	-52.4018	-42.4686	-196.294	-74.6695	-25.2076	-194.194	-55.3387	-3.37075	-204.006	-11.0854	-13.1597	-204.241	-9.1235	16.0762	-167.885	-6.35229	4.45601	
10	0.0833333	-145.114	-33.1699	10.1456	-133.683	-54.1418	-15.1419	-140.618	-70.5247	-41.6605	-168.655	-77.0771	-51.7191	-158.566	-35.5482	-61.7405	-152.541	-64.8427	-57.3809	-157.644	-52.3679	-24.7819	-176.776	-43.3191	-64.0953	-170.975	-70.8734	-53.5502	-175.644	-55.5381	-18.0728	-197.954	-49.0004	-52	-190.945	-74.381	-38.1163	-183.693	-54.9655	-8.2245	-209.841	-49.5387	-41.7399	-198.674	-72.281	-26.0869	-197.09	-53.6065	-3.17738	-206.402	-8.29984	-11.3684	-205.886	-7.9107	16.5659	-172.516	-3.22441	4.5419	
